<?xml version="1.0" encoding="utf-8"?>
<!-- Generator: Adobe Illustrator 15.0.0, SVG Export Plug-In . SVG Version: 6.00 Build 0)  -->
<!DOCTYPE svg PUBLIC "-//W3C//DTD SVG 1.0//EN" "http://www.w3.org/TR/2001/REC-SVG-20010904/DTD/svg10.dtd">
<svg version="1.0" id="Layer_1" xmlns="http://www.w3.org/2000/svg" xmlns:xlink="http://www.w3.org/1999/xlink" x="0px" y="0px"
	 width="595.28px" height="841.89px" viewBox="0 0 595.28 841.89" enable-background="new 0 0 595.28 841.89" xml:space="preserve">
<g>
	<path fill="#942A3E" d="M136.951,224.277c-6.56,0-8.479-4.64-8.479-10.784s2.208-10.751,8.511-10.751
		c6.496,0,8.352,4.607,8.352,10.751S143.191,224.277,136.951,224.277z M136.951,203.926c-5.503,0-6.943,4.063-6.943,9.567
		c0,5.376,1.44,9.6,6.943,9.6c5.504,0,6.848-4.224,6.848-9.6C143.799,207.99,142.455,203.926,136.951,203.926z"/>
	<path fill="#942A3E" d="M155.416,224.084c-2.144,0-3.616-1.056-4.384-2.112v7.552h-1.312v-16.063c0-1.504-0.064-2.816-0.256-4.32
		h1.056l0.48,2.336c0.736-1.216,2.176-2.656,4.319-2.656c4.256,0,5.6,3.583,5.6,7.711
		C160.919,220.629,159.095,224.084,155.416,224.084z M155.063,209.877c-2.016,0-3.616,1.824-4.063,3.296v7.487
		c0.704,0.8,1.632,2.368,4.224,2.368c2.528,0,4.288-2.08,4.288-6.56C159.511,212.757,158.455,209.877,155.063,209.877z"/>
	<path fill="#942A3E" d="M165.496,216.757c0,3.488,1.056,6.271,4.64,6.271c1.696,0,3.008-0.512,4.512-1.312l0.384,1.184
		c-1.664,0.8-3.424,1.184-5.151,1.184c-4.256,0-5.824-3.424-5.824-7.487c0-3.392,1.312-7.775,5.76-7.775
		c4.735,0,5.759,3.583,5.759,7.936H165.496z M169.815,209.877c-2.816,0-4.16,2.304-4.352,5.824h8.832
		C174.295,211.861,173.015,209.877,169.815,209.877z"/>
	<path fill="#942A3E" d="M188.631,223.765v-8.959c0-2.656-0.512-4.928-3.712-4.928c-2.112,0-3.616,1.952-4.063,3.264v10.623h-1.312
		v-11.519c0-1.216-0.192-1.888-0.256-3.104h1.056l0.416,2.304c0.544-0.704,1.728-2.624,4.352-2.624c3.647,0,4.832,2.368,4.832,5.728
		v9.215H188.631z"/>
	<path fill="#942A3E" d="M202.519,224.277c-6.016,0-8.191-4.672-8.191-10.848c0-5.759,1.952-10.687,8.383-10.687
		c1.792,0,3.264,0.224,4.832,0.736l-0.576,1.344c-1.344-0.576-2.72-0.896-4.255-0.896c-5.504,0-6.848,4.671-6.848,9.471
		c0,5.087,1.472,9.695,6.656,9.695c1.536,0,3.007-0.384,4.671-1.056l0.576,1.344C205.942,224.021,204.343,224.277,202.519,224.277z"
		/>
	<path fill="#942A3E" d="M211.351,205.238v-2.176h1.536v2.176H211.351z M211.479,223.765v-14.623h1.312v14.623H211.479z"/>
	<path fill="#942A3E" d="M222.71,225.141c-3.264-0.608-4.896-2.144-4.896-4.896v-10.047h-2.208v-1.056h2.208v-3.647h1.312v3.647
		h3.328v1.056h-3.328v10.047c0,2.08,1.12,3.2,3.936,3.68L222.71,225.141z"/>
	<path fill="#942A3E" d="M230.934,226.101c-0.8,2.176-1.568,2.88-3.904,3.744l-0.384-1.216c1.76-0.48,2.496-1.216,2.815-2.08
		l1.28-3.392l-5.856-14.015l1.408-0.032l5.12,12.543l4.352-12.511h1.28L230.934,226.101z"/>
	<path fill="#942A3E" d="M248.662,224.277c-6.016,0-8.191-4.672-8.191-10.848c0-5.759,1.952-10.687,8.383-10.687
		c1.792,0,3.264,0.224,4.832,0.736l-0.576,1.344c-1.344-0.576-2.72-0.896-4.255-0.896c-5.504,0-6.848,4.671-6.848,9.471
		c0,5.087,1.472,9.695,6.656,9.695c1.536,0,3.007-0.384,4.671-1.056l0.576,1.344C252.085,224.021,250.485,224.277,248.662,224.277z"
		/>
	<path fill="#942A3E" d="M266.709,223.765c-0.032-0.352-0.448-1.344-0.512-1.856c-0.736,1.216-2.24,2.176-4.256,2.176
		c-2.56,0-5.12-1.216-5.12-4.16c0-2.976,1.536-4.896,7.744-4.896h1.504v-1.344c0-2.4-0.928-3.808-3.36-3.808
		c-2.016,0-3.392,0.576-4.768,1.248l-0.48-1.152c1.568-0.608,3.04-1.152,5.215-1.152c2.88,0,4.704,1.504,4.704,4.704v5.76
		c0,1.152,0.192,2.624,0.384,4.479H266.709z M266.101,216.117h-1.088c-5.184,0-6.784,1.088-6.784,3.776
		c0,1.856,1.28,3.136,3.712,3.136c1.888,0,3.456-0.928,4.16-2.336V216.117z"/>
	<path fill="#942A3E" d="M290.26,223.765v-9.279c0-2.176-0.448-4.608-3.775-4.608c-1.92,0-3.488,1.92-4.032,3.424v10.463h-1.312
		v-9.279c0-2.784-1.216-4.608-3.647-4.608c-1.92,0-3.488,1.792-4,3.264v10.623h-1.312v-11.263c0-1.216-0.16-2.272-0.256-3.36h1.056
		l0.447,2.304c0.673-0.992,1.92-2.624,4.256-2.624c2.624,0,3.872,1.568,4.384,3.232c0.832-1.344,2.144-3.232,4.544-3.232
		c3.231,0,4.96,1.696,4.96,5.6v9.343H290.26z"/>
	<path fill="#942A3E" d="M301.877,224.084c-2.144,0-3.615-1.056-4.383-2.112v7.552h-1.312v-16.063c0-1.504-0.063-2.816-0.256-4.32
		h1.056l0.48,2.336c0.735-1.216,2.176-2.656,4.319-2.656c4.256,0,5.6,3.583,5.6,7.711
		C307.381,220.629,305.557,224.084,301.877,224.084z M301.525,209.877c-2.016,0-3.616,1.824-4.063,3.296v7.487
		c0.704,0.8,1.632,2.368,4.224,2.368c2.527,0,4.287-2.08,4.287-6.56C305.973,212.757,304.917,209.877,301.525,209.877z"/>
	<path fill="#942A3E" d="M320.116,229.076v-27.774h1.889v27.774H320.116z"/>
	<path fill="#942A3E" d="M343.859,224.309c-5.632,0-7.936-2.656-7.936-8.191v-13.055h2.336v12.735c0,5.279,1.792,6.688,5.6,6.688
		c3.552,0,5.151-1.76,5.151-6.688v-12.735h2.336v13.119C351.347,221.685,348.947,224.309,343.859,224.309z"/>
	<path fill="#942A3E" d="M356.724,223.765v-21.022h2.079v21.022H356.724z"/>
	<path fill="#942A3E" d="M381.362,223.765v-9.279c0-2.176-0.512-4.064-3.199-4.064c-1.856,0-3.296,1.76-3.84,3.264v10.079h-2.08
		v-9.279c0-2.656-1.024-4.064-3.168-4.064c-1.792,0-3.231,1.792-3.712,3.072v10.271h-2.079v-11.263c0-1.216-0.192-2.272-0.288-3.36
		h1.823l0.48,2.176c0.607-0.896,2.144-2.528,4.096-2.528c2.624,0,3.712,1.216,4.479,2.912c0.832-1.344,2.399-2.912,4.512-2.912
		c3.359,0,5.056,1.728,5.056,5.632v9.343H381.362z"/>
	<path fill="#942A3E" d="M395.475,223.765l-0.768-1.952c2.944-2.752,9.951-8.096,9.951-12c0-2.976-1.439-4.096-3.999-4.096
		c-1.664,0-2.88,0.576-4.704,1.472l-0.8-2.016c2.367-0.96,3.808-1.248,5.567-1.248c3.52,0,6.304,1.568,6.304,5.759
		c0,4.576-6.239,9.439-9.312,12.223h9.76v1.856H395.475z"/>
	<path fill="#942A3E" d="M416.85,224.245c-5.855,0-6.56-5.184-6.56-10.335c0-4.959,1.152-9.951,6.592-9.951
		c5.855,0,6.624,4.768,6.624,9.951C423.506,219.125,422.77,224.245,416.85,224.245z M416.882,205.75
		c-3.775,0-4.191,4.384-4.191,8.159c0,4.512,0.288,8.543,4.159,8.543c4.128,0,4.256-4.255,4.256-8.543
		C421.105,209.462,420.85,205.75,416.882,205.75z"/>
	<path fill="#942A3E" d="M432.785,223.797v-16.895l-3.68,3.168l-0.8-1.888l4.607-3.839h2.208v19.455H432.785z"/>
	<path fill="#942A3E" d="M442.321,223.765l-0.768-1.952c2.944-2.752,9.951-8.096,9.951-12c0-2.976-1.439-4.096-4-4.096
		c-1.663,0-2.879,0.576-4.703,1.472l-0.8-2.016c2.367-0.96,3.808-1.248,5.567-1.248c3.52,0,6.304,1.568,6.304,5.759
		c0,4.576-6.239,9.439-9.312,12.223h9.76v1.856H442.321z"/>
	<path fill="#5C484B" d="M138.519,262.805c-6.047,0-9.183-2.752-9.183-8.288v-13.055h4.864v12.735c0,4.319,2.335,4.863,4.319,4.863
		c2.016,0,3.904-1.184,3.904-4.863v-12.735h4.864v13.119C147.287,260.084,143.991,262.805,138.519,262.805z"/>
	<path fill="#5C484B" d="M151.576,262.165v-20.703h4.864v16.863h8.191v3.84H151.576z"/>
	<path fill="#5C484B" d="M188.063,262.165v-15.519l-5.216,15.519h-5.216l-5.184-15.519v15.519h-4.671v-20.703h8.159l4.48,14.239
		l4.64-14.239h7.839v20.703H188.063z"/>
	<path fill="#5C484B" d="M216.992,262.165h-9.215v-20.703h8.159c3.776,0,6.976,1.376,6.976,5.824c0,2.176-1.408,3.552-3.296,4.032
		c2.56,0.256,4.256,1.76,4.256,4.704C223.871,260.757,220.575,262.165,216.992,262.165z M215.936,245.206h-3.295v4.448h3.744
		c0.992,0,1.6-0.864,1.6-2.335C217.983,246.678,217.728,245.206,215.936,245.206z M216.448,253.365h-3.808v5.056h4.16
		c0.992,0,2.112-0.704,2.112-2.4C218.912,254.133,217.824,253.365,216.448,253.365z"/>
	<path fill="#5C484B" d="M228.103,262.165v-20.703h12.703v3.744h-7.839v4.384h7.167v3.744h-7.167v5.088h8.127v3.744H228.103z"/>
	<path fill="#5C484B" d="M269.749,262.165h-6.112l-3.744-13.471l-4.607,13.471h-6.112l-4.447-20.703h5.151l2.976,14.911
		l4.384-14.047h6.144l3.36,14.015l3.424-14.879h4.799L269.749,262.165z"/>
	<path fill="#5C484B" d="M278.595,262.165v-20.703h12.703v3.744h-7.839v4.384h7.167v3.744h-7.167v5.088h8.127v3.744H278.595z"/>
	<path fill="#5C484B" d="M305.528,262.805c-7.968,0-9.951-5.408-9.951-11.007c0-6.368,3.071-10.783,10.239-10.783
		c1.439,0,3.968,0.48,5.439,0.864l-1.472,4.064c-1.248-0.544-2.528-1.184-3.937-1.184c-2.815,0-5.247,1.024-5.247,7.04
		c0,4.992,1.216,7.263,5.023,7.263c1.439,0,1.984-0.032,2.88-0.576v-4.064h-4.576v-3.744h8.896v10.239
		C310.68,262.229,308.888,262.805,305.528,262.805z"/>
	<path fill="#5C484B" d="M317.468,262.165v-20.703h12.703v3.744h-7.839v4.384h7.167v3.744h-7.167v5.088h8.127v3.744H317.468z"/>
	<path fill="#5C484B" d="M346.552,262.165l-6.176-14.943v14.943h-4.672v-20.703H343l6.111,14.943v-14.943h4.8v20.703H346.552z"/>
</g>
<g transform="translate(6.17773, 3.72168)">
	<path fill="#942A3E" d="M64.756,222.203c4.111-1.714,4.275-8.251,2.449-11.66c-2.449-4.572-8.633-3.812-12.807-2.619
		c1.156-3.324,3.279-7.865,7.113-8.521c3.807-0.651,7.533,1.712,10.844,3.243c2.957,1.369,8.154,3.087,10.289-0.647
		c0.648-1.576-1.277-2.875-2.967-3.946c-1.684-1.07-3.479-2.096-5.352-2.798c40.551-8.602,41.67,76.479-1.26,64.354
		c-3.1-0.874-6.082-2.134-8.951-3.588c4.01,0.333,8.328-0.092,11.535-2.692c2.748-2.227,4.197-6.871-0.328-7.95
		c-4.068-0.97-8.5,1.508-12.512,1.849c-5.053,0.429-9.361,0.556-12.234-3.429c2.223-0.277,3.945-0.869,4.818-1.501
		c1.512-1.093,2.977-2.623,3.109-4.572c0.256-3.73-2.609-7.225-5.82-8.813c-1.484-0.733-3.26-0.995-4.863-0.522
		c-2.066,0.609-2.662,2.392-4.107,3.762c-1.416,1.341-2.738,2.322-4.689,2.712c-2.275,0.402-4.475-0.69-6.229-2.049
		c-0.957-0.745-1.773-1.646-2.629-2.503c3.658,0.522,8.535,1.466,10.678-2.639c1.725-3.302-0.322-7.056,1.5-10.396
		c2.342-4.288,8.281-0.928,11.197,0.757C56.889,219.964,60.221,224.091,64.756,222.203z"/>
</g>
<g transform="translate(57.6143, 33.835)">
	<path fill="#F1F2F2" d="M33.105,210.007c2.311-3.353,3.533-7.276,3.533-11.348c0-3.983-1.17-7.835-3.385-11.137
		c-0.461-0.688-1.393-0.871-2.08-0.411c-0.689,0.462-0.873,1.395-0.412,2.082c1.883,2.806,2.877,6.079,2.877,9.466
		c0,3.46-1.039,6.795-3.002,9.645c-0.471,0.683-0.299,1.616,0.383,2.087C31.701,210.861,32.636,210.689,33.105,210.007z"/>
</g>
<g transform="translate(63.4053, 29.9268)">
	<path fill="#F1F2F2" d="M33.105,217.9c3.119-4.524,4.768-9.826,4.768-15.332c0-5.384-1.58-10.587-4.568-15.045
		c-0.461-0.688-1.393-0.871-2.082-0.41c-0.688,0.461-0.871,1.394-0.41,2.081c2.656,3.963,4.061,8.587,4.061,13.374
		c0,4.896-1.465,9.608-4.236,13.629c-0.471,0.683-0.299,1.616,0.385,2.087C31.701,218.753,32.636,218.581,33.105,217.9z"/>
</g>
<g transform="translate(68.9297, 26.1963)">
	<path fill="#F1F2F2" d="M30.862,189.195c3.396,5.067,5.193,10.981,5.193,17.104c0,6.259-1.875,12.286-5.418,17.43
		c-0.471,0.683-0.299,1.616,0.383,2.087c0.682,0.47,1.617,0.298,2.086-0.384c3.893-5.647,5.949-12.263,5.949-19.133
		c0-6.72-1.971-13.212-5.703-18.774c-0.461-0.688-1.393-0.872-2.08-0.411C30.584,187.575,30.401,188.506,30.862,189.195z"/>
</g>
<rect x="126.392" y="279" fill="#EBE3BA" width="330.275" height="3.667"/>
</svg>
